<svg xmlns="http://www.w3.org/2000/svg" xmlns:xlink="http://www.w3.org/1999/xlink" width="711.188" height="669.683" xmlns:v="https://vecta.io/nano"><path fill="#e6e6e6" d="M516.326 380.018v184.995l30.944 50.43 2.355 3.836h122.097l2.467-239.261H516.326z"/><path opacity=".1" d="M516.326 380.018v184.995l30.944 50.43 1.899-235.425h-32.843z"/><path fill="#e6e6e6" d="M221.566 375.084V560.08l-30.944 50.43-2.355 3.835H66.17l-2.467-239.261h157.863z"/><path opacity=".1" d="M221.566 375.084V560.08l-30.944 50.43-1.899-235.426h32.843z"/><path fill="#e6e6e6" d="M711.188 371.385v11.099H47.67v-16.033l61.665-32.066h547.588l54.265 37z"/><path opacity=".1" d="M711.188 371.385v11.099H47.67v-16.033l663.518 4.934z"/><g fill="#3f3d56"><path d="M142.635 426.883h-29.6l-12.333-8.633h55.499l-13.566 8.633zm0 35.766h-29.6l-12.333-8.633h55.499l-13.566 8.633zm0 50.566h-29.6l-12.333-8.634h55.499l-13.566 8.634zm0 50.565h-29.6l-12.333-8.633h55.499l-13.566 8.633z"/><use xlink:href="#B"/><use xlink:href="#B" y="35.766"/><use xlink:href="#B" y="86.332"/><use xlink:href="#B" y="136.897"/><path d="M615.414 120.456H366.228c-2.499 0-4.897.992-6.664 2.76s-2.76 4.165-2.76 6.664v167.858c0 2.499.992 4.897 2.76 6.664s4.165 2.76 6.664 2.76h94.593l-3.544 22.626s-20.253 10.759-6.013 11.076 81.328 0 81.328 0 12.974 0-7.595-11.392l-3.334-22.31h93.75c2.499 0 4.897-.992 6.664-2.76s2.76-4.165 2.76-6.664V129.88c0-2.499-.992-4.897-2.76-6.664s-4.165-2.76-6.664-2.76z"/></g><g fill="#f2f2f2"><path d="M365.823 130.424h249.996v139.871H365.823z"/><circle cx="490.821" cy="125.994" r="1.582"/><circle cx="490.821" cy="294.346" r="6.013"/></g><path d="M481.452 357.952v3.165h-170.25v-2.532l.234-.633 4.196-11.392h162.339l3.481 11.392zm65.518-3.098c-.31 1.326-1.481 2.725-4.127 4.047-9.494 4.747-28.797-1.266-28.797-1.266s-14.873-2.532-14.873-9.177c.418-.286.853-.545 1.304-.775 3.991-2.112 17.225-7.322 40.691.221 1.729.543 3.273 1.555 4.46 2.923a4.67 4.67 0 0 1 1.342 4.027z" fill="#3f3d56"/><path d="M546.97 354.854c-11.62 4.452-21.977 4.785-32.607-2.598-4.02-2.972-8.887-4.575-13.886-4.573 3.991-2.112 17.225-7.322 40.691.221 1.729.543 3.273 1.555 4.46 2.923 1.067 1.05 1.566 2.547 1.342 4.027z" opacity=".1"/><ellipse cx="532.4" cy="350.99" rx="4.114" ry="1.266" fill="#f2f2f2"/><path opacity=".1" d="M481.452 357.952v3.165h-170.25v-2.532l.234-.633h170.016z"/><path d="M94.661 0c-1.728-.142-3.458.245-4.961 1.108-1.476 1.011-2.406 2.782-3.356 4.429-3.631 6.376-8.546 11.928-14.434 16.305-4.289 3.142-9.742 7.06-9.008 12.853a17.37 17.37 0 0 0 2.091 5.426c3.957 7.987 14.754 14.159 13.692 23.273 3.931-6.581-1.327-9.835 2.604-16.416 1.872-3.134 5.124-6.672 7.951-4.704.946.659 1.568 1.841 2.553 2.419 2.351 1.38 4.853-1.258 6.934-3.126 7.177-6.443 17.383-4.755 26.314-2.747 4.216.948 8.847 2.191 11.34 6.221 3.277 5.298-3.113 11.02-4.728 17.01-.268 1.036-.01 2.137.688 2.948s1.75 1.227 2.814 1.114c2.68-.264 5.854-.481 6.013-1.657 3.372.12 7.503-.262 8.947-3.773a14.76 14.76 0 0 0 .693-4.293c.53-5.897 3.033-11.277 4.691-16.89s2.379-12.191-.419-17.167c-.999-1.656-2.234-3.157-3.666-4.456C135.534 2.512 114.657-.023 94.661 0z" fill="#2f2e41"/><path d="M82.138 74.905s3.453 28.778-9.209 31.081 11.511 41.441 11.511 41.441l57.557 6.907-13.814-46.045s-9.209-3.453-3.453-26.476-42.592-6.907-42.592-6.907zm-35.11 494.413l4.605 63.313h24.173L68.9 569.318H47.028zM224.303 449.6l3.453 52.952 26.477-11.511-10.361-43.743-19.569 2.302z" fill="#ffb8b8"/><path d="M29.761 327.58s1.151 66.766 8.058 88.637 5.756 23.023 4.605 26.476-2.302 1.151-2.302 6.907-2.302 96.695 0 104.753-6.907 21.872 0 23.023 39.139 0 40.29-6.907-9.209-9.209-4.605-13.814 11.511-98.998 11.511-98.998l16.116-65.615 29.93-34.534h63.312l19.569 75.975s-8.058 21.872-2.302 21.872 40.29 6.907 40.29-18.418-11.511-100.149-13.814-102.451 1.151-10.36-2.302-13.814-43.743-27.627-58.708-32.232-35.958-10.085-35.958-10.085zm224.472 154.252s-17.267-5.756-25.325 11.511-4.605 21.872-4.605 21.872 26.476 9.209 31.081 4.605c2.003-2.003 8.365-2.699 14.913-2.846 9.973-.224 12.626-14.333 3.207-17.619q-.421-.147-.853-.255c-9.209-2.302-18.418-17.267-18.418-17.267z" fill="#2f2e41"/><circle cx="108.038" cy="59.365" r="34.534" fill="#ffb8b8"/><path d="M63.144 120.375s56.406 11.511 70.219-6.907 19.569 51.801 19.569 51.801l6.907 73.673-10.36 40.29s-54.103 43.743-71.37 47.197-43.743 5.756-43.743 5.756l8.058-130.078c0-2.302 20.72-81.731 20.72-81.731z" fill="#00cf5d"/><path d="M80.298 98.786s-12.55-7.189-16.003-.282-35.685 24.174-39.139 24.174 6.907 95.544 2.302 107.056-26.475 95.543-13.813 102.45 3.453-6.907 16.116 10.36 74.824 17.267 78.277 10.36-27.627-58.708-21.872-107.056 14.965-115.114 6.907-124.323-12.775-22.74-12.775-22.74zm41.554 7.775l1.603-5.518s47.895 15.878 50.198 26.238 1.151 82.882-6.907 88.637-19.569 14.965-11.511 28.778 17.267 28.778 24.174 29.93 19.569 9.209 16.116 17.267-44.894-6.907-44.894-6.907-27.627-20.72-26.476-52.952-2.302-125.474-2.302-125.474z" fill="#2f2e41"/><path d="M162.142 242.396l-27.627 51.801s-40.29 41.441-17.267 46.045 35.685-37.988 35.685-37.988l29.93-42.592z" fill="#ffb8b8"/><path d="M96.344 9.036a7.84 7.84 0 0 0-4.039.783 9.42 9.42 0 0 0-2.732 3.131c-3.07 4.619-7.073 8.544-11.75 11.524-3.491 2.221-7.93 4.99-7.333 9.084a11.36 11.36 0 0 0 1.702 3.835 30.16 30.16 0 0 1 3.665 18.801l9.6-13.954c1.524-2.215 4.171-4.715 6.472-3.324.77.466 1.276 1.301 2.078 1.71 1.914.975 3.95-.889 5.644-2.21 5.842-4.554 14.15-3.361 21.421-1.942 3.432.67 7.202 1.549 9.231 4.397 3.372 4.733-.149 11.572 1.819 17.04 1.113-.779 1.863-1.976 2.079-3.317 2.745.085 6.108-.185 7.283-2.666a9.19 9.19 0 0 0 .564-3.034c.432-4.168 2.469-7.971 3.819-11.938s1.937-8.616-.341-12.133a14.68 14.68 0 0 0-2.984-3.149C129.616 10.811 112.621 9.02 96.344 9.036zm65.798 113.641l10.725 2.847s24.96 63.919 19.204 107.662-9.209 34.534-9.209 34.534-9.209-20.72-29.93-16.116zM48.623 624.263c-2.776 3.772-2.219 9.165-4.678 13.151-2.131 3.455-6.148 5.267-8.814 8.329-.851 1.017-1.609 2.108-2.266 3.26-2.473 4.143-4.483 9.452-2.048 13.616 1.959 3.35 6.078 4.66 9.855 5.552 4.774 1.128 9.734 2.031 14.564 1.169s9.549-3.819 11.271-8.412a32.5 32.5 0 0 1 1.205-3.401c2.617-5.153 10.827-5.209 13.506-10.33 1.875-3.584.151-7.916-1.571-11.576l-5.261-11.177c-1.746-3.709-8.824-1.576-12.513-2.465-4.812-1.159-9.787-2.436-13.248 2.284z" fill="#2f2e41"/><path d="M10.192 265.418l48.348 74.824s29.93 37.987 39.139 20.72-32.232-46.045-32.232-46.045L34.366 257.36z" fill="#ffb8b8"/><path d="M34.366 124.98l-9.209-2.302s-18.418 5.756-23.023 29.93-1.151 120.869 4.605 122.02 28.427-16.837 32.056-13.023-7.882-15.756-4.429-26.116 0-110.509 0-110.509z" fill="#2f2e41"/><path d="M437.407 176.363h29.752v7.163h-29.752zm122.315 0h10.468v7.163h-10.468zm20.937 0h10.468v7.163h-10.468zm-103.031 0h71.075v7.163h-71.075zm-77.687 46.281h29.752v7.163h-29.752zm122.315 0h10.468v7.163h-10.468zm20.937 0h10.468v7.163h-10.468zm-103.031 0h71.075v7.163h-71.075zm82.645-30.303h29.752v7.163h-29.752zm40.221 0h29.752v7.163h-29.752zm-163.087 0h10.468v7.163h-10.468zm20.937 0h10.468v7.163h-10.468zm20.937 0h71.075v7.163h-71.075zm19.284 15.427h29.752v7.163h-29.752zm-40.221 0h29.752v7.163h-29.752zm-20.937 0h10.468v7.163h-10.468zm182.371 0h10.468v7.163h-10.468zm-81.544 0h71.075v7.163h-71.075z" fill="#00cf5d"/><defs ><path id="B" d="M595.257 431.816h29.6l12.333-8.633h-55.499l13.566 8.633z"/></defs></svg>